<svg width="27" height="27" viewBox="0 0 27 27" fill="none" xmlns="http://www.w3.org/2000/svg">
<path d="M18.148 4.17871C16.2194 4.17871 14.5158 5.14942 13.5 6.62799C12.4844 5.14942 10.7808 4.17871 8.85221 4.17871C5.74078 4.17871 3.21436 6.70513 3.21436 9.81656C3.21436 16.6888 13.5 22.8666 13.5 22.8666C13.5 22.8666 23.7858 16.6888 23.7858 9.81656C23.7858 6.70513 21.2594 4.17871 18.148 4.17871Z" fill="url(#paint0_radial_7_682)"/>
<path opacity="0.5" d="M20.4813 4.68018C23.5671 9.59802 20.7257 16.0523 17.3121 17.8845C13.5449 19.9095 10.9671 18.958 5.63135 15.9302C8.67205 19.9609 13.4999 22.8602 13.4999 22.8602C13.4999 22.8602 23.7857 16.6823 23.7857 9.81018C23.7857 7.53446 22.4292 5.56732 20.4813 4.68018Z" fill="url(#paint1_radial_7_682)"/>
<path opacity="0.5" d="M18.148 4.17871C16.2194 4.17871 14.5158 5.14942 13.5 6.62799C12.4844 5.14942 10.7808 4.17871 8.85221 4.17871C5.74078 4.17871 3.21436 6.70513 3.21436 9.81656C3.21436 16.6888 13.5 22.8666 13.5 22.8666C13.5 22.8666 23.7858 16.6888 23.7858 9.81656C23.7858 6.70513 21.2594 4.17871 18.148 4.17871Z" fill="url(#paint2_radial_7_682)"/>
<path opacity="0.5" d="M18.148 4.17871C16.2194 4.17871 14.5158 5.14942 13.5 6.62799C12.4844 5.14942 10.7808 4.17871 8.85221 4.17871C5.74078 4.17871 3.21436 6.70513 3.21436 9.81656C3.21436 16.6888 13.5 22.8666 13.5 22.8666C13.5 22.8666 23.7858 16.6888 23.7858 9.81656C23.7858 6.70513 21.2594 4.17871 18.148 4.17871Z" fill="url(#paint3_radial_7_682)"/>
<path opacity="0.24" d="M12.0922 6.46743C12.6579 7.79815 11.4043 9.60457 9.28931 10.4982C7.17431 11.3917 5.00789 11.0446 4.44217 9.72029C3.87645 8.39601 5.13003 6.58315 7.24503 5.68958C9.36003 4.79601 11.5264 5.13672 12.0922 6.46743Z" fill="url(#paint4_radial_7_682)"/>
<path opacity="0.24" d="M18.9834 5.38757C19.787 6.27472 19.292 8.02972 17.8842 9.30258C16.4763 10.5754 14.6827 10.8904 13.8792 10.0033C13.0756 9.11614 13.5706 7.36114 14.9784 6.08829C16.3863 4.81543 18.1799 4.50043 18.9834 5.38757Z" fill="url(#paint5_radial_7_682)"/>
<path opacity="0.32" d="M18.2507 5.67656C21.0793 6.64085 23.7793 10.8194 19.2151 16.0266C16.4829 19.1444 13.5001 20.7194 9.70721 20.1022C11.7579 21.8122 13.5065 22.8666 13.5065 22.8666C13.5065 22.8666 23.7923 16.6888 23.7923 9.81656C23.7857 6.70513 21.2593 4.17871 18.1479 4.17871C16.2193 4.17871 14.5157 5.14942 13.5001 6.62799C13.5001 6.62799 16.1807 4.96942 18.2507 5.67656Z" fill="url(#paint6_linear_7_682)"/>
<defs>
<radialGradient id="paint0_radial_7_682" cx="0" cy="0" r="1" gradientUnits="userSpaceOnUse" gradientTransform="translate(10.5579 9.39121) rotate(-29.408) scale(16.0947 12.7672)">
<stop offset="0.2479" stop-color="#FF0000"/>
<stop offset="0.8639" stop-color="#C20000"/>
</radialGradient>
<radialGradient id="paint1_radial_7_682" cx="0" cy="0" r="1" gradientUnits="userSpaceOnUse" gradientTransform="translate(10.9558 8.40395) rotate(-29.408) scale(13.857 10.9921)">
<stop offset="0.2479" stop-color="#FF0000"/>
<stop offset="1" stop-color="#C20000"/>
</radialGradient>
<radialGradient id="paint2_radial_7_682" cx="0" cy="0" r="1" gradientUnits="userSpaceOnUse" gradientTransform="translate(10.5579 9.39121) rotate(-29.408) scale(16.0947 12.7672)">
<stop stop-color="white" stop-opacity="0.25"/>
<stop offset="1" stop-color="white" stop-opacity="0"/>
</radialGradient>
<radialGradient id="paint3_radial_7_682" cx="0" cy="0" r="1" gradientUnits="userSpaceOnUse" gradientTransform="translate(16.3437 14.855) rotate(-26.296) scale(11.7485 5.80543)">
<stop stop-color="#BD2719" stop-opacity="0.25"/>
<stop offset="1" stop-color="#BD2719" stop-opacity="0"/>
</radialGradient>
<radialGradient id="paint4_radial_7_682" cx="0" cy="0" r="1" gradientUnits="userSpaceOnUse" gradientTransform="translate(8.26592 8.09385) rotate(-21.6908) scale(4.17659 2.59443)">
<stop stop-color="white"/>
<stop offset="1" stop-color="white" stop-opacity="0"/>
</radialGradient>
<radialGradient id="paint5_radial_7_682" cx="0" cy="0" r="1" gradientUnits="userSpaceOnUse" gradientTransform="translate(16.4254 7.70208) rotate(-40.7634) scale(3.45798 2.14819)">
<stop stop-color="white"/>
<stop offset="1" stop-color="white" stop-opacity="0"/>
</radialGradient>
<linearGradient id="paint6_linear_7_682" x1="15.6226" y1="30.2061" x2="17.6156" y2="3.33465" gradientUnits="userSpaceOnUse">
<stop stop-color="#860805"/>
<stop offset="1" stop-color="#BD2719" stop-opacity="0"/>
</linearGradient>
</defs>
</svg>
