<svg width="27" height="27" viewBox="0 0 27 27" fill="none" xmlns="http://www.w3.org/2000/svg">
<path d="M13.4354 2.69995C12.598 2.69995 12.281 3.36859 12.3457 4.66643C12.3883 5.52115 12.6769 7.90393 11.4689 9.11188C10.3429 10.2378 10.0149 10.1385 8.73287 11.5908C7.45081 13.0432 6.38164 12.7452 4.88665 12.6159C3.00693 12.455 3.64718 22.8835 4.97184 22.7037C5.91171 22.576 8.05004 22.3189 8.39068 22.3189C8.73287 22.3189 11.0778 24.1356 13.1358 24.1561C16.4694 24.1908 18.3082 23.601 18.3082 23.601L19.2843 21.3854L19.6108 14.6281L18.0511 11.3764C18.0511 11.3764 15.9569 11.7186 15.3577 10.7787C14.76 9.83885 15.8276 8.68453 15.8276 5.99108C15.8276 3.29762 13.8627 2.69995 13.4354 2.69995Z" fill="url(#paint0_linear_7_581)"/>
<path d="M18.4248 23.5803L18.2986 23.1182C17.9233 23.0788 17.4392 23.2491 16.78 23.2444C13.6277 23.2207 10.6141 22.3156 9.32101 21.2921C8.47419 20.6219 8.10358 19.7293 7.50435 19.9864C6.76634 20.3034 4.67212 20.7954 3.901 19.8208C4.11703 21.4892 4.50182 22.7697 4.97175 22.7051C5.91162 22.5773 8.04999 22.3203 8.39059 22.3203C8.73282 22.3203 11.0115 24.0896 13.1357 24.1574C15.8828 24.2473 18.3223 23.7742 18.3223 23.7742L18.4248 23.5803Z" fill="url(#paint1_linear_7_581)"/>
<path d="M15.3592 10.7787C14.7615 9.83885 15.8292 8.68453 15.8292 5.99108C15.8292 3.29762 13.8627 2.69995 13.4353 2.69995C13.3234 2.69995 13.2224 2.71256 13.1326 2.73622C14.8767 2.84503 15.9269 5.0449 15.3245 7.31256C14.8372 9.15288 14.5944 10.6274 15.3908 11.4931C15.9064 12.0529 16.9299 11.9583 18.0511 11.3764C18.0511 11.3764 15.9569 11.7186 15.3592 10.7787Z" fill="url(#paint2_linear_7_581)"/>
<path d="M15.4759 11.7378C14.4493 12.08 11.86 12.8842 9.89665 14.6631C4.92447 19.1732 13.4148 19.7377 15.1669 23.5934C15.5027 24.3314 17.4613 19.7267 17.4613 19.7267L18.0953 18.6607L16.2644 13.7862L15.4759 11.7378Z" fill="url(#paint3_linear_7_581)"/>
<path d="M15.6273 12.1287C14.6007 12.4709 10.4108 15.1549 10.4108 16.4811C10.4108 20.3068 13.3124 18.4192 14.8814 22.9324C15.0991 23.5569 15.8655 24.0836 15.8655 24.0836C16.501 23.5648 17.4629 19.7296 17.4629 19.7296L18.0969 18.6636L16.266 13.7892L15.6273 12.1287Z" fill="url(#paint4_linear_7_581)"/>
<path d="M17.9944 23.8536L19.9577 21.6096L20.3898 12.233L15.476 11.7378C14.3485 12.3449 14.2176 13.176 14.6371 14.5085C14.8137 15.0699 14.0961 15.2307 14.0504 16.8645C14.0189 17.9968 14.76 18.0031 14.76 18.339C14.76 18.6748 14.391 18.6449 14.268 19.621C14.093 21.0166 15.2615 21.0434 15.2615 21.3415C15.2615 21.6395 14.6118 21.8177 14.6528 22.9547C14.7033 24.3977 12.024 24.1059 10.2137 22.7923C9.46932 22.253 8.82122 22.1978 8.31342 22.3192C8.34497 22.3176 8.37177 22.3161 8.39226 22.3161C8.73448 22.3161 11.0305 24.1532 13.1373 24.1532C15.599 24.1564 17.3021 24.0129 17.9944 23.8536Z" fill="url(#paint5_linear_7_581)"/>
<path d="M18.4454 12.3557C16.9283 12.3557 16.0941 13.838 16.6713 14.9782C17.2484 16.1183 15.6021 17.6259 15.774 18.3671C15.9443 19.1098 16.2439 20.988 16.4789 21.2987C16.7139 21.6093 16.0941 22.3142 16.0941 22.3142L18.018 22.5492L19.8126 21.7576L19.7479 16.3296L19.9403 12.9313L18.4454 12.3557Z" fill="url(#paint6_linear_7_581)"/>
<path d="M13.4354 2.69995C12.5981 2.69995 12.2811 3.36859 12.3457 4.66643C12.3883 5.52115 12.6769 7.90393 11.4689 9.11188C10.343 10.2378 10.015 10.1369 8.73294 11.5908C7.90029 12.5354 7.15755 12.7389 6.32963 12.731C5.88336 12.7263 5.41183 12.6616 4.88672 12.6159C4.88672 12.9407 4.98135 12.9328 6.22082 13.2751C6.36274 13.3145 6.4968 13.3413 6.62768 13.3571C6.69076 13.5542 6.72545 13.7529 6.71755 13.95C6.67182 15.0302 6.90996 16.3596 7.0913 14.9766C7.16228 14.4404 7.38148 13.838 7.69529 13.2309C8.16523 13.0432 8.54525 12.6916 8.88275 12.2816C9.51195 11.5167 10.0576 10.8387 11.6392 9.81364C13.2209 8.78703 13.0175 5.96742 12.8898 5.02597C12.7621 4.08451 12.8472 2.69995 13.4354 2.69995Z" fill="url(#paint7_radial_7_581)"/>
<path d="M19.595 11.3339C17.8004 11.2661 14.5755 11.1636 14.5046 13.0433C14.4525 14.4058 15.4192 14.8537 16.9141 14.9104C18.4091 14.9672 19.1566 14.9956 19.7764 15.0192C20.3961 15.0429 22.3436 15.0303 22.3625 13.3855C22.3862 11.3292 19.595 11.3339 19.595 11.3339Z" fill="url(#paint8_linear_7_581)"/>
<path d="M16.6445 18.1288C16.1635 18.1146 14.7363 18.4757 14.6023 19.3825C14.4967 20.0953 14.8609 21.0178 16.1036 21.2354C17.6774 21.5114 20.3015 21.6549 21.2807 21.289C21.7191 21.125 22.1008 20.6677 22.1197 19.9723C22.1402 19.2768 21.6245 18.3417 20.5017 18.3086C19.3789 18.2755 18.7954 18.2928 18.1568 18.2187C17.3904 18.1256 17.0293 18.1399 16.6445 18.1288Z" fill="url(#paint9_linear_7_581)"/>
<path d="M16.1446 21.2988C15.5989 21.2988 14.9271 21.7798 14.9271 22.5809C14.9271 23.382 15.1353 23.9749 16.3054 24.2005C17.4755 24.4244 19.3505 24.232 20.0554 24.008C20.6042 23.833 20.8092 23.3189 20.8092 22.4689C20.8092 21.6189 20.2809 21.4707 19.7037 21.4707C19.1266 21.4707 18.4264 21.5764 18.0258 21.5543C16.9078 21.496 16.6886 21.2988 16.1446 21.2988Z" fill="url(#paint10_linear_7_581)"/>
<path d="M19.442 11.7141C17.8761 11.6542 15.0597 11.5643 15.0029 13.0498C14.9619 14.1268 15.8071 14.4832 17.1128 14.5337C18.4186 14.5842 21.8532 14.6457 21.8642 13.3447C21.8784 11.7188 19.442 11.7141 19.442 11.7141Z" fill="url(#paint11_linear_7_581)"/>
<path d="M16.7895 18.5107C16.3716 18.4981 15.1983 18.5991 15.0864 19.4648C15.0107 20.0514 15.315 20.8036 16.3968 20.985C17.7688 21.2136 20.0522 21.3351 20.9054 21.0354C21.2854 20.9014 21.6182 20.5277 21.6339 19.9584C21.6497 19.3891 21.1261 18.6905 20.15 18.6637C19.1738 18.6353 18.655 18.7252 18.0968 18.6637C17.4282 18.588 17.1238 18.5218 16.7895 18.5107Z" fill="url(#paint12_linear_7_581)"/>
<path d="M16.3764 21.5903C15.9049 21.5903 15.323 21.9783 15.323 22.6233C15.323 23.2682 15.5027 23.746 16.5152 23.9274C17.5276 24.1087 19.1503 23.9526 19.759 23.7728C20.2337 23.6325 20.4103 23.2178 20.4103 22.5333C20.4103 21.849 19.953 21.7291 19.4531 21.7291C18.9531 21.7291 18.3476 21.8143 18.0022 21.7969C17.0371 21.7496 16.8479 21.5903 16.3764 21.5903Z" fill="url(#paint13_linear_7_581)"/>
<path d="M6.1356 22.5537C4.87406 22.0113 3.6945 14.5838 6.02052 12.7182C5.66567 12.6961 5.29196 12.6488 4.88665 12.6141C3.00693 12.4533 3.64718 22.8817 4.97184 22.702C5.27144 22.6625 5.69091 22.6089 6.1356 22.5537Z" fill="url(#paint14_linear_7_581)"/>
<path d="M16.0893 13.0498C16.1287 12.0264 16.944 11.5359 17.9753 11.3088C16.329 11.3467 14.5565 11.6542 14.5029 13.0419C14.4508 14.4044 15.4175 14.8523 16.9125 14.9091C17.0765 14.9154 17.2326 14.9216 17.3792 14.9264C16.5403 14.6819 16.0483 14.13 16.0893 13.0498Z" fill="url(#paint15_linear_7_581)"/>
<path d="M16.2298 11.4949C15.2725 11.7046 14.5377 12.1572 14.503 13.0435C14.4604 14.1773 15.1211 14.6756 16.2045 14.8459C14.0094 13.9691 14.7963 11.8087 16.2298 11.4949Z" fill="url(#paint16_linear_7_581)"/>
<path opacity="0.65" d="M13.6798 22.264C13.4259 22.8459 12.2211 22.8822 10.9863 22.346C9.75313 21.8098 8.95835 20.9015 9.21066 20.3196C9.46457 19.7377 10.6693 19.7014 11.9041 20.2376C13.1373 20.7754 13.9321 21.6821 13.6798 22.264Z" fill="url(#paint17_radial_7_581)"/>
<path opacity="0.75" d="M20.9385 13.3241C20.9259 14.111 19.874 14.4832 18.7244 14.5526C17.783 14.6093 16.739 13.9439 16.7658 13.1759C16.7927 12.4079 16.9299 11.7267 18.8837 11.7945C20.038 11.8355 20.9511 12.5562 20.9385 13.3241Z" fill="url(#paint18_radial_7_581)"/>
<path opacity="0.75" d="M21.1483 20.2375C21.142 21.3256 19.9435 21.1174 18.7939 21.1931C17.3352 21.2893 16.3685 20.8352 16.3669 20.0672C16.3669 19.2992 16.9205 18.7378 18.8775 18.7346C20.0302 18.7331 21.1562 18.8387 21.1483 20.2375Z" fill="url(#paint19_radial_7_581)"/>
<path opacity="0.75" d="M20.0933 22.9827C20.0869 23.9115 18.9988 24.0377 17.9691 24.0377C16.9393 24.0377 15.8197 23.4921 15.8181 22.8376C15.8181 22.1816 16.3133 21.7054 18.0621 21.7022C19.0935 21.6991 20.1012 21.7905 20.0933 22.9827Z" fill="url(#paint20_radial_7_581)"/>
<path d="M15.9396 19.6019C16.1036 18.3624 17.0545 18.4349 18.1442 18.3056C16.8889 18.2126 16.3622 18.1984 16.3622 18.1984C16.2455 18.1873 16.1146 18.1857 15.9774 18.2C15.569 18.2898 15.1069 18.4759 14.8326 18.8228C14.7395 18.9553 14.6638 19.1114 14.6134 19.2975C14.6086 19.3243 14.6039 19.3511 14.5992 19.3795C14.5109 20.0955 14.8578 21.0148 16.1004 21.2325C16.2802 21.264 16.4726 21.294 16.676 21.3208C16.7738 21.3334 16.8795 21.346 16.993 21.3602C17.023 21.3633 17.0545 21.3681 17.0845 21.3712C16.4016 21.0495 15.8197 20.5134 15.9396 19.6019Z" fill="url(#paint21_linear_7_581)"/>
<path d="M16.2439 18.1906C16.1588 18.1875 16.0705 18.1907 15.9774 18.2001C15.5658 18.2916 15.1006 18.4792 14.8262 18.8324C14.7364 18.9634 14.6638 19.1179 14.6149 19.2977C14.6102 19.3245 14.607 19.3513 14.6007 19.3797C14.4746 20.0846 14.8247 20.9156 15.9096 21.19C14.0598 20.1713 14.8499 18.1922 16.2439 18.1906Z" fill="url(#paint22_linear_7_581)"/>
<path d="M17.3225 21.4881C16.7753 21.4076 16.5498 21.2988 16.1446 21.2988C15.5989 21.2988 14.9271 21.7798 14.9271 22.5809C14.9271 22.8726 14.9555 23.136 15.0454 23.3631C15.1369 23.5523 15.2709 23.7289 15.4554 23.8772C15.6573 24.0175 15.9317 24.1279 16.3054 24.1989C16.5561 24.2462 16.8384 24.2761 17.1349 24.2887C16.5624 23.956 15.5942 23.7778 15.7976 22.6661C16.0199 21.4392 16.7532 21.6048 17.3225 21.4881Z" fill="url(#paint23_linear_7_581)"/>
<path d="M16.1193 21.2988C15.5784 21.313 14.9255 21.7908 14.9255 22.5809C14.9255 23.3158 15.1006 23.874 16.031 24.1358C14.5802 23.2022 15.0454 21.63 16.1193 21.2988Z" fill="url(#paint24_linear_7_581)"/>
<path d="M22.361 13.3857C22.3626 13.2012 22.3421 13.0341 22.3027 12.8811C22.4462 13.5229 21.8753 14.1616 20.3583 14.4722C19.3522 14.6772 16.6824 14.9343 14.8342 14.201C15.2332 14.6836 15.9664 14.876 16.9126 14.9122C18.4076 14.969 19.155 14.9974 19.7748 15.021C20.3945 15.0431 22.3421 15.0321 22.361 13.3857Z" fill="url(#paint25_linear_7_581)"/>
<path d="M22.1212 19.9266C22.1196 19.2375 21.6023 18.3386 20.5032 18.3071C19.382 18.274 18.7969 18.2913 18.1583 18.2172C17.3903 18.1273 17.0292 18.1399 16.6444 18.1289C16.3542 18.121 15.6367 18.2077 15.1494 18.5105C15.6982 18.7013 16.5907 18.9868 17.8476 18.9063C20.8596 18.7124 21.7159 19.0767 22.1212 19.9266Z" fill="url(#paint26_linear_7_581)"/>
<path d="M15.9995 15.019C15.3592 15.0064 14.3405 15.3833 14.3137 16.7143C14.2869 18.0452 15.4507 18.3622 15.9632 18.3717C16.4757 18.3811 18.2687 18.5041 20.4812 18.5483C22.6937 18.5924 22.9886 17.405 23.0012 16.7837C23.0138 16.1624 22.6196 15.0364 21.2886 15.0096C17.444 14.9323 15.9995 15.019 15.9995 15.019Z" fill="url(#paint27_linear_7_581)"/>
<path d="M16.3433 15.4041C15.7866 15.3931 14.902 15.6817 14.8815 16.7083C14.861 17.7349 15.8734 17.9825 16.3197 17.9904C16.7659 17.9998 18.1584 18.2158 20.2463 18.1354C22.1686 18.0613 22.4241 17.2586 22.4335 16.7792C22.443 16.2998 22.3768 15.4309 21.2208 15.4073C17.8777 15.3426 16.3433 15.4041 16.3433 15.4041Z" fill="url(#paint28_linear_7_581)"/>
<path d="M15.6888 16.5848C15.7535 15.2192 16.706 15.2145 17.783 14.9795C16.5246 14.9874 15.9979 15.0189 15.9979 15.0189C15.3577 15.0063 14.339 15.3832 14.3122 16.7141C14.2853 18.0451 15.4491 18.3621 15.9617 18.3715C16.1462 18.3747 16.4978 18.3936 16.9756 18.4173C16.2676 18.1239 15.6415 17.5893 15.6888 16.5848Z" fill="url(#paint29_linear_7_581)"/>
<path opacity="0.75" d="M21.8753 16.7271C21.9195 17.8152 20.7115 18.0202 19.5603 18.0754C18.4091 18.1306 17.1286 17.5487 17.0924 16.7807C17.0561 16.0127 17.5828 15.4277 19.5382 15.3331C20.6878 15.2763 21.8185 15.3299 21.8753 16.7271Z" fill="url(#paint30_radial_7_581)"/>
<path d="M15.8797 15.0208C15.2394 15.0554 14.339 15.4639 14.3137 16.7128C14.2885 17.9776 15.3388 18.3261 15.8828 18.3671C13.776 17.5171 14.4667 15.1453 15.8797 15.0208Z" fill="url(#paint31_linear_7_581)"/>
<path d="M22.998 16.6499C22.7204 18.618 17.5149 18.2584 14.7031 17.8358C15.0832 18.2426 15.6478 18.3656 15.9631 18.3719C16.4756 18.383 18.2686 18.5044 20.4811 18.5485C22.692 18.5927 22.9885 17.4053 23.0011 16.784C23.0027 16.7414 23.0011 16.6956 22.998 16.6499Z" fill="url(#paint32_linear_7_581)"/>
<path d="M20.3913 21.0322C19.3837 21.0764 16.7155 21.4075 14.7711 20.3667C14.9871 20.7705 15.4082 21.1126 16.1036 21.2341C17.6774 21.51 20.3015 21.6536 21.2808 21.2877C21.7191 21.1237 22.1008 20.6664 22.1197 19.9709C22.0566 20.5749 21.481 20.9849 20.3913 21.0322Z" fill="url(#paint33_linear_7_581)"/>
<path d="M20.7304 23.2192C20.0696 23.7223 18.9279 24.0187 17.2815 23.7396C16.2644 23.5677 15.5674 23.5094 15.1085 23.4968C15.2914 23.8279 15.6463 24.0723 16.3054 24.1985C17.4755 24.4224 19.3505 24.2301 20.0554 24.0061C20.4166 23.891 20.6279 23.6276 20.7304 23.2192Z" fill="url(#paint34_linear_7_581)"/>
<path d="M15.1416 21.8601C16.3622 21.4154 16.9598 22.0746 18.2672 22.0746C19.6233 22.0746 20.2699 21.5274 20.7509 22.0478C20.5994 21.5668 20.1658 21.4706 19.7022 21.4706C19.125 21.4706 18.4248 21.5763 18.0243 21.5542C16.9078 21.4958 16.6886 21.2971 16.143 21.2971C15.7913 21.2987 15.3845 21.5006 15.1416 21.8601Z" fill="url(#paint35_linear_7_581)"/>
<path d="M4.97181 22.7039C5.91168 22.5761 8.04846 22.3191 8.39068 22.3191C5.29037 20.1035 6.66862 15.3915 7.81349 13.0071C7.97434 12.6728 8.0737 12.3984 8.12574 12.165C7.09441 12.952 6.14037 12.7249 4.8851 12.616C3.00693 12.4552 3.64874 22.8836 4.97181 22.7039Z" fill="url(#paint36_linear_7_581)"/>
<path d="M6.9272 20.5624C6.60708 20.135 6.88464 21.0544 7.14169 21.7167C7.3593 22.2813 5.6877 21.9469 4.40723 22.0857C4.57439 22.4989 4.76518 22.7323 4.97335 22.7039C5.91322 22.5761 8.05 22.3191 8.39219 22.3191C7.90967 21.9091 7.24732 20.9897 6.9272 20.5624Z" fill="url(#paint37_radial_7_581)"/>
<path d="M8.39223 22.3192C8.12571 22.0937 7.80559 21.712 7.51699 21.343C7.51699 21.343 5.96055 22.1394 4.29211 21.764C4.48452 22.3728 4.71477 22.7386 4.97181 22.7024C5.91323 22.5746 8.05001 22.3192 8.39223 22.3192Z" fill="url(#paint38_linear_7_581)"/>
<path opacity="0.75" d="M14.432 7.06831C13.8233 7.19919 13.3297 6.35868 13.0506 5.37622C12.8219 4.57357 13.1326 3.55169 13.7303 3.43498C14.3279 3.31988 14.8814 3.31515 15.211 5.01668C15.405 6.02121 15.0281 6.94056 14.432 7.06831Z" fill="url(#paint39_radial_7_581)"/>
<path d="M16.1194 21.299C15.7835 21.3337 15.4807 21.5135 15.2726 21.761C15.0613 22.0102 14.9619 22.3351 14.984 22.6631C14.9856 22.9911 15.036 23.3285 15.2221 23.5951C15.4066 23.8631 15.7173 24.024 16.0311 24.1359C15.7078 24.0634 15.3703 23.9294 15.1527 23.6455C14.9335 23.3648 14.8815 23.0006 14.872 22.6646C14.8578 22.3224 14.9666 21.9566 15.2095 21.7043C15.4429 21.4488 15.7819 21.2927 16.1194 21.299Z" fill="#804B24"/>
<path d="M15.5816 18.3167C15.3608 18.4128 15.1574 18.5437 14.9886 18.7062C14.8167 18.867 14.7253 19.0878 14.6638 19.3117V19.3086C14.5833 19.717 14.6511 20.1507 14.8908 20.4913C15.1258 20.835 15.5043 21.0606 15.9096 21.1914C15.4932 21.111 15.0738 20.9092 14.812 20.548C14.6811 20.3698 14.5912 20.1633 14.5486 19.9457C14.5045 19.728 14.525 19.5009 14.566 19.2896L14.5676 19.2865C14.6338 19.0515 14.7505 18.8166 14.9429 18.6573C15.1274 18.4917 15.3545 18.3908 15.5816 18.3167Z" fill="#804B24"/>
<path d="M15.8797 15.0208C15.4839 15.0665 15.1007 15.2305 14.8263 15.508C14.5519 15.7856 14.4037 16.1672 14.38 16.5567C14.3406 16.9446 14.4037 17.3483 14.6244 17.67C14.8436 17.9933 15.2 18.2094 15.5832 18.3213C15.1921 18.2504 14.8026 18.0564 14.555 17.7205C14.3027 17.3878 14.2349 16.9494 14.2696 16.5473C14.3027 16.142 14.462 15.7288 14.7679 15.4465C15.0691 15.1611 15.4807 15.0239 15.8797 15.0208Z" fill="#804B24"/>
<path d="M16.2313 11.4944C15.8071 11.6095 15.3861 11.7704 15.0518 12.0447C14.7143 12.3176 14.5329 12.7402 14.5613 13.1723C14.555 13.6012 14.6954 14.0396 15.0234 14.325C15.3451 14.6136 15.7787 14.7524 16.2077 14.8439C15.7724 14.7934 15.3214 14.683 14.9666 14.3897C14.6039 14.0995 14.4509 13.6185 14.4494 13.1739C14.4257 12.7213 14.6291 12.2482 14.9981 11.9769C15.3593 11.701 15.7976 11.5701 16.2313 11.4944Z" fill="#804B24"/>
<path d="M14.7711 20.3667C15.0628 20.8713 15.6226 21.1331 16.1777 21.2088C16.7407 21.2955 17.31 21.3554 17.8777 21.3917C18.4454 21.4406 19.0162 21.469 19.5871 21.4674C19.8725 21.4643 20.158 21.4564 20.4402 21.428C20.7241 21.4059 21.0095 21.376 21.2823 21.2861C20.743 21.4879 20.158 21.5211 19.5887 21.54C19.0162 21.5542 18.4422 21.5384 17.8698 21.5005C17.2989 21.4517 16.7296 21.3791 16.1651 21.2798C15.8812 21.2325 15.5974 21.1457 15.3498 20.9943C15.1022 20.8429 14.8988 20.6222 14.7711 20.3667Z" fill="#804B24"/>
<path d="M14.7033 17.8342C14.9209 18.0518 15.2032 18.1954 15.4965 18.2679C15.7883 18.3546 16.0958 18.3357 16.4048 18.3499L18.2483 18.4035L20.0918 18.495C20.7037 18.5328 21.325 18.5407 21.9116 18.3404C21.3408 18.5833 20.6989 18.6038 20.0902 18.5707L18.2468 18.5171L16.4033 18.4256C16.1005 18.4051 15.782 18.4193 15.4823 18.3215C15.1859 18.2285 14.9083 18.0645 14.7033 17.8342Z" fill="#804B24"/>
<path d="M21.2902 15.0098C20.8486 15.0113 20.4087 15.024 19.9671 15.0192L18.644 15.0224L17.3226 15.0413C16.8826 15.0444 16.4411 15.046 16.0026 15.0634H15.9995C15.5658 15.0555 15.1164 15.2037 14.8041 15.5144C14.4856 15.8219 14.3358 16.2682 14.3153 16.7145C14.3184 16.4905 14.3421 16.2666 14.4115 16.0506C14.4809 15.8345 14.5991 15.6342 14.76 15.4718C15.0817 15.1422 15.5437 14.9782 16.0011 14.9766H15.9979C16.881 14.923 17.7625 14.923 18.6456 14.9372C19.5272 14.9451 20.4087 14.9609 21.2902 15.0098Z" fill="#804B24"/>
<defs>
<linearGradient id="paint0_linear_7_581" x1="18.1208" y1="13.2505" x2="11.6908" y2="13.5086" gradientUnits="userSpaceOnUse">
<stop offset="0.00132565" stop-color="#F0C492"/>
<stop offset="1" stop-color="#F8DBBA"/>
</linearGradient>
<linearGradient id="paint1_linear_7_581" x1="12.7152" y1="15.6172" x2="8.60126" y2="31.7363" gradientUnits="userSpaceOnUse">
<stop offset="0.3118" stop-color="#F0C492" stop-opacity="0"/>
<stop offset="1" stop-color="#E6AF74"/>
</linearGradient>
<linearGradient id="paint2_linear_7_581" x1="6.85082" y1="6.68178" x2="19.2568" y2="7.61142" gradientUnits="userSpaceOnUse">
<stop offset="0.3118" stop-color="#F0C492" stop-opacity="0"/>
<stop offset="1" stop-color="#E6AF74"/>
</linearGradient>
<linearGradient id="paint3_linear_7_581" x1="3.06124" y1="17.7066" x2="21.0139" y2="17.7066" gradientUnits="userSpaceOnUse">
<stop offset="0.3118" stop-color="#F0C492" stop-opacity="0"/>
<stop offset="1" stop-color="#E6AF74"/>
</linearGradient>
<linearGradient id="paint4_linear_7_581" x1="2.97579" y1="18.1057" x2="19.6119" y2="18.1057" gradientUnits="userSpaceOnUse">
<stop offset="0.3118" stop-color="#F0C492" stop-opacity="0"/>
<stop offset="1" stop-color="#E6AF74"/>
</linearGradient>
<linearGradient id="paint5_linear_7_581" x1="-0.183112" y1="17.7804" x2="33.1559" y2="18.1651" gradientUnits="userSpaceOnUse">
<stop stop-color="#D2A374" stop-opacity="0"/>
<stop offset="1" stop-color="#B88653"/>
</linearGradient>
<linearGradient id="paint6_linear_7_581" x1="15.199" y1="17.8416" x2="19.6373" y2="17.2585" gradientUnits="userSpaceOnUse">
<stop stop-color="#643800" stop-opacity="0"/>
<stop offset="1" stop-color="#643800"/>
</linearGradient>
<radialGradient id="paint7_radial_7_581" cx="0" cy="0" r="1" gradientUnits="userSpaceOnUse" gradientTransform="translate(5.49618 8.11105) scale(9.383)">
<stop stop-color="#F0C492" stop-opacity="0"/>
<stop offset="1" stop-color="#F0C492"/>
</radialGradient>
<linearGradient id="paint8_linear_7_581" x1="18.3579" y1="15.0941" x2="18.6999" y2="6.58835" gradientUnits="userSpaceOnUse">
<stop offset="0.00132565" stop-color="#F0C492"/>
<stop offset="1" stop-color="#F8DBBA"/>
</linearGradient>
<linearGradient id="paint9_linear_7_581" x1="22.0578" y1="19.8172" x2="15.7561" y2="19.8172" gradientUnits="userSpaceOnUse">
<stop offset="0.00132565" stop-color="#F0C492"/>
<stop offset="1" stop-color="#F8DBBA"/>
</linearGradient>
<linearGradient id="paint10_linear_7_581" x1="22.0578" y1="22.799" x2="15.7596" y2="22.799" gradientUnits="userSpaceOnUse">
<stop offset="0.00132565" stop-color="#F0C492"/>
<stop offset="1" stop-color="#F8DBBA"/>
</linearGradient>
<linearGradient id="paint11_linear_7_581" x1="13.8809" y1="13.2194" x2="17.1613" y2="13.1446" gradientUnits="userSpaceOnUse">
<stop offset="0.00132565" stop-color="#F0C492"/>
<stop offset="1" stop-color="#EFD8B7"/>
</linearGradient>
<linearGradient id="paint12_linear_7_581" x1="20.6473" y1="19.8621" x2="17.3033" y2="19.8621" gradientUnits="userSpaceOnUse">
<stop offset="0.00132565" stop-color="#F0C492"/>
<stop offset="1" stop-color="#EFD8B7"/>
</linearGradient>
<linearGradient id="paint13_linear_7_581" x1="20.0378" y1="26.2483" x2="14.4599" y2="17.0587" gradientUnits="userSpaceOnUse">
<stop offset="0.00132565" stop-color="#F0C492"/>
<stop offset="1" stop-color="#EFD8B7"/>
</linearGradient>
<linearGradient id="paint14_linear_7_581" x1="5.70887" y1="17.6598" x2="3.73855" y2="17.6598" gradientUnits="userSpaceOnUse">
<stop offset="0.3118" stop-color="#F0C492" stop-opacity="0"/>
<stop offset="1" stop-color="#E6AF74"/>
</linearGradient>
<linearGradient id="paint15_linear_7_581" x1="16.5653" y1="13.1191" x2="14.7811" y2="13.1191" gradientUnits="userSpaceOnUse">
<stop offset="0.3118" stop-color="#F0C492" stop-opacity="0"/>
<stop offset="1" stop-color="#E6AF74"/>
</linearGradient>
<linearGradient id="paint16_linear_7_581" x1="16.2449" y1="13.1703" x2="14.193" y2="13.1703" gradientUnits="userSpaceOnUse">
<stop offset="0.3118" stop-color="#F0C492" stop-opacity="0"/>
<stop offset="1" stop-color="#E6AF74"/>
</linearGradient>
<radialGradient id="paint17_radial_7_581" cx="0" cy="0" r="1" gradientUnits="userSpaceOnUse" gradientTransform="translate(11.2879 20.8429) rotate(23.5256) scale(2.50382 1.16248)">
<stop stop-color="#F8E6D2"/>
<stop offset="0.7237" stop-color="#F8E6D2" stop-opacity="0"/>
</radialGradient>
<radialGradient id="paint18_radial_7_581" cx="0" cy="0" r="1" gradientUnits="userSpaceOnUse" gradientTransform="translate(18.8837 13.181) rotate(2.02715) scale(2.14215 1.40598)">
<stop stop-color="#F8E6D2"/>
<stop offset="1" stop-color="#F8E6D2" stop-opacity="0"/>
</radialGradient>
<radialGradient id="paint19_radial_7_581" cx="0" cy="0" r="1" gradientUnits="userSpaceOnUse" gradientTransform="translate(18.762 20.0824) rotate(-0.054387) scale(2.30127 1.2401)">
<stop stop-color="#F8E6D2"/>
<stop offset="1" stop-color="#F8E6D2" stop-opacity="0"/>
</radialGradient>
<radialGradient id="paint20_radial_7_581" cx="0" cy="0" r="1" gradientUnits="userSpaceOnUse" gradientTransform="translate(17.9559 22.8698) rotate(-0.0539336) scale(2.10732 1.3182)">
<stop stop-color="#F8E6D2"/>
<stop offset="1" stop-color="#F8E6D2" stop-opacity="0"/>
</radialGradient>
<linearGradient id="paint21_linear_7_581" x1="16.7792" y1="19.7817" x2="14.1932" y2="19.7817" gradientUnits="userSpaceOnUse">
<stop offset="0.3118" stop-color="#F0C492" stop-opacity="0"/>
<stop offset="1" stop-color="#E6AF74"/>
</linearGradient>
<linearGradient id="paint22_linear_7_581" x1="16.2295" y1="19.6915" x2="14.8366" y2="19.6915" gradientUnits="userSpaceOnUse">
<stop offset="0.3118" stop-color="#F0C492" stop-opacity="0"/>
<stop offset="1" stop-color="#E6AF74"/>
</linearGradient>
<linearGradient id="paint23_linear_7_581" x1="16.6862" y1="22.816" x2="13.6621" y2="22.2603" gradientUnits="userSpaceOnUse">
<stop offset="0.3118" stop-color="#F0C492" stop-opacity="0"/>
<stop offset="1" stop-color="#E6AF74"/>
</linearGradient>
<linearGradient id="paint24_linear_7_581" x1="16.3734" y1="22.7172" x2="15.0952" y2="22.7172" gradientUnits="userSpaceOnUse">
<stop offset="0.3118" stop-color="#F0C492" stop-opacity="0"/>
<stop offset="1" stop-color="#E6AF74"/>
</linearGradient>
<linearGradient id="paint25_linear_7_581" x1="18.4112" y1="12.7684" x2="19.2233" y2="16.7007" gradientUnits="userSpaceOnUse">
<stop stop-color="#E6AF74" stop-opacity="0"/>
<stop offset="1" stop-color="#E6AF74"/>
</linearGradient>
<linearGradient id="paint26_linear_7_581" x1="18.5126" y1="20.6373" x2="18.8012" y2="17.3034" gradientUnits="userSpaceOnUse">
<stop stop-color="#D2A374" stop-opacity="0"/>
<stop offset="1" stop-color="#B88653"/>
</linearGradient>
<linearGradient id="paint27_linear_7_581" x1="22.0578" y1="16.7632" x2="15.7596" y2="16.7632" gradientUnits="userSpaceOnUse">
<stop offset="0.00132565" stop-color="#F0C492"/>
<stop offset="1" stop-color="#F8DBBA"/>
</linearGradient>
<linearGradient id="paint28_linear_7_581" x1="18.4408" y1="18.9321" x2="19.0392" y2="12.8841" gradientUnits="userSpaceOnUse">
<stop offset="0.00132565" stop-color="#F0C492"/>
<stop offset="1" stop-color="#EFD8B7"/>
</linearGradient>
<linearGradient id="paint29_linear_7_581" x1="17.3882" y1="16.698" x2="13.7837" y2="16.698" gradientUnits="userSpaceOnUse">
<stop offset="0.3118" stop-color="#F0C492" stop-opacity="0"/>
<stop offset="1" stop-color="#E6AF74"/>
</linearGradient>
<radialGradient id="paint30_radial_7_581" cx="0" cy="0" r="1" gradientUnits="userSpaceOnUse" gradientTransform="translate(19.4756 16.7065) rotate(-2.73441) scale(2.44506 1.60397)">
<stop stop-color="#F8E6D2"/>
<stop offset="1" stop-color="#F8E6D2" stop-opacity="0"/>
</radialGradient>
<linearGradient id="paint31_linear_7_581" x1="15.7128" y1="16.6938" x2="14.5747" y2="16.6938" gradientUnits="userSpaceOnUse">
<stop offset="0.3118" stop-color="#F0C492" stop-opacity="0"/>
<stop offset="1" stop-color="#E6AF74"/>
</linearGradient>
<linearGradient id="paint32_linear_7_581" x1="18.7099" y1="16.3472" x2="19.3938" y2="20.6962" gradientUnits="userSpaceOnUse">
<stop stop-color="#E6AF74" stop-opacity="0"/>
<stop offset="1" stop-color="#E6AF74"/>
</linearGradient>
<linearGradient id="paint33_linear_7_581" x1="18.2356" y1="19.7116" x2="19.9881" y2="23.5156" gradientUnits="userSpaceOnUse">
<stop stop-color="#E6AF74" stop-opacity="0"/>
<stop offset="1" stop-color="#E6AF74"/>
</linearGradient>
<linearGradient id="paint34_linear_7_581" x1="17.8863" y1="23.048" x2="18.1428" y2="25.4523" gradientUnits="userSpaceOnUse">
<stop stop-color="#E6AF74" stop-opacity="0"/>
<stop offset="1" stop-color="#E6AF74"/>
</linearGradient>
<linearGradient id="paint35_linear_7_581" x1="17.9468" y1="22.6835" x2="17.9468" y2="20.9443" gradientUnits="userSpaceOnUse">
<stop stop-color="#FFBA47" stop-opacity="0"/>
<stop offset="1" stop-color="#C66F34"/>
</linearGradient>
<linearGradient id="paint36_linear_7_581" x1="6.19939" y1="17.8822" x2="0.749752" y2="26.1208" gradientUnits="userSpaceOnUse">
<stop offset="0.3118" stop-color="#F0C492" stop-opacity="0"/>
<stop offset="1" stop-color="#D2A374"/>
</linearGradient>
<radialGradient id="paint37_radial_7_581" cx="0" cy="0" r="1" gradientUnits="userSpaceOnUse" gradientTransform="translate(6.41333 21.5636) scale(1.61837)">
<stop stop-color="#F0C492" stop-opacity="0"/>
<stop offset="1" stop-color="#F0C492"/>
</radialGradient>
<linearGradient id="paint38_linear_7_581" x1="6.3834" y1="20.4557" x2="6.25518" y2="25.3604" gradientUnits="userSpaceOnUse">
<stop stop-color="#F0C492" stop-opacity="0"/>
<stop offset="1" stop-color="#E6AF74"/>
</linearGradient>
<radialGradient id="paint39_radial_7_581" cx="0" cy="0" r="1" gradientUnits="userSpaceOnUse" gradientTransform="translate(14.1361 5.24243) rotate(79.0631) scale(1.8269 1.07229)">
<stop stop-color="#F8E6D2"/>
<stop offset="1" stop-color="#F8E6D2" stop-opacity="0"/>
</radialGradient>
</defs>
</svg>
